<svg xmlns="http://www.w3.org/2000/svg" viewBox="0 0 32 32" fill="none">
  <!-- Deep Navy Circle matching bottom banner -->
  <circle cx="16" cy="16" r="16" fill="#030E1E"/>
  
  <!-- Faint Gold Globe lines in background -->
  <circle cx="16" cy="16" r="11" stroke="#C5A880" stroke-width="0.8" opacity="0.25"/>
  <path d="M5 16h22M16 5v22" stroke="#C5A880" stroke-width="0.8" opacity="0.25"/>
  
  <!-- Majestic Gold Airplane soaring upwards -->
  <path d="M16 6L23.5 22.5l-7.5-3.5-7.5 3.5L16 6z" fill="#C5A880"/>
  
  <!-- Deep Navy heart silhouette in center -->
  <path d="M16 16.8c-.2-.2-.5-.4-.8-.4-.6 0-1.1.5-1.1 1.1 0 .8.9 1.5 1.9 2 .1 0 .1 0 .1-.1.6-.3 1.8-1.2 1.8-1.9 0-.6-.5-1.1-1.1-1.1-.3 0-.6.2-.8.4z" fill="#030E1E"/>
</svg>
